<svg width="816" height="816" viewBox="0 0 816 816" fill="none" xmlns="http://www.w3.org/2000/svg">
<path d="M347.333 90.8002C310.533 92.8002 275.067 102.667 241.6 120.134C221.6 130.534 212.267 136.534 196.667 148.934C148.4 187.6 116.133 238.267 101.333 298.667C95.8667 321.334 94.2667 339.867 95.0667 369.6C96.2667 411.867 103.2 440.8 121.333 478C136.267 508.8 153.333 532.134 178.133 556C257.6 632.4 375.2 652.667 475.867 607.334C493.2 599.6 523.467 581.467 526 577.334C526.8 576 508.667 553.334 506.8 553.334C506.267 553.334 500.8 556.667 494.667 560.8C471.333 576.4 441.467 588.534 410.667 594.8C396.933 597.734 392 598 363.333 597.867C333.733 597.867 330.133 597.6 316 594.4C252.667 579.867 202.8 546.134 165.733 492.667C154.8 476.934 142 448.934 135.733 427.334C128.667 402.667 127.333 392.667 127.333 360C127.333 333.467 127.733 328.134 130.533 314.667C148.8 226.667 213.2 156.134 297.733 131.867C323.733 124.267 331.6 123.334 364.667 123.334C391.733 123.334 397.067 123.734 410.667 126.534C485.733 142 547.467 189.867 579.867 258C593.333 286.134 601.067 315.867 602.4 345.334L603.333 363.333H619.333H635.333L634.933 349.334C632.533 266.667 588.4 186.934 518.533 138.4C468.133 103.334 410.667 87.4668 347.333 90.8002Z" fill="currentColor"/>
<path d="M354.667 231.067V240.8L341.067 242.267C297.6 246.934 270.667 272.267 270.667 308.667C270.667 340.934 288.8 360.267 331.333 373.067C338.667 375.334 346.4 377.467 348.4 377.867L352.133 378.8L352 403.734C351.867 417.6 351.333 429.467 350.933 430.267C350.267 431.2 348 431.067 343.333 430C332.4 427.2 326.667 418.267 325.067 401.334L324.667 398L295.6 397.6L266.533 397.334L267.467 404.267C267.867 408.134 269.2 414.934 270.267 419.334C277.6 448.934 305.467 469.867 341.6 472.8L352 473.734V486.8C352 496.4 352.4 500 353.733 500.134C354.533 500.267 360 500.4 365.6 500.534L376 500.667V487.6C376 478.267 376.533 474.4 377.733 474.134C378.533 473.867 385.067 472.934 392.133 472.134C424.4 468.534 447.6 454 457.2 431.6C461.6 421.467 463.467 403.067 461.6 391.6C456.4 361.334 434.533 344 384.4 330.8L378.667 329.2V305.334V281.334H382C392 281.334 400.4 289.6 402.933 301.867L404.533 309.334H431.733H459.067L458.267 302.267C455.867 279.467 441.867 259.6 421.067 249.6C413.333 245.867 400 242.534 388.667 241.467L379.333 240.667L378.933 230.934L378.533 221.334H366.667H354.667V231.067ZM356 302V324L352.4 323.2C350.267 322.667 344.933 320.667 340.4 318.534C327.6 312.8 323.333 303.067 329.067 292.134C332.933 284.4 340.267 280.667 352.4 280.134L356 280V302ZM395.6 392.667C398.667 394.534 402.267 397.867 403.333 400C406 405.067 405.867 415.067 403.2 420.134C400.8 424.934 390.4 430 381.067 431.2L374.667 431.867V408V384.134L382.267 386.8C386.4 388.134 392.4 390.8 395.6 392.667Z" fill="currentColor"/>
<path d="M570.667 404.667V413.333H620.667H670.667V404.667V396H620.667H570.667V404.667Z" fill="currentColor"/>
<path d="M570.667 442.667V462.667H620.667H670.8L670.4 442.934L670 423.334L620.4 422.934L570.667 422.667V442.667Z" fill="currentColor"/>
<path d="M570.4 488.934L570 506H544.933C531.2 506 520 506.4 520 506.8C520 507.2 530 520.134 542.4 535.467C554.667 550.934 577.2 579.2 592.4 598.4L620.133 633.2L641.2 606.934C664.933 577.2 706 525.6 714.4 514.934C717.467 510.934 720 507.334 720 506.934C720 506.4 708.933 506.134 695.333 506.4L670.667 506.8V489.467V472H620.667H570.8L570.4 488.934Z" fill="currentColor"/>
</svg>
