<svg width="816" height="816" viewBox="0 0 816 816" fill="none" xmlns="http://www.w3.org/2000/svg">
<path d="M615.6 84.9333C608.533 93.6 591.6 114.8 578 132C564.267 149.2 546.533 171.467 538.533 181.6C530.533 191.6 524 200.133 524 200.533C524 200.933 535.733 201.333 550 201.333H576V218.667V236H628H680V218.667V201.333L706.8 201.067L733.467 200.667L722.267 186.667C716.133 178.933 693.2 150.133 671.333 122.667C649.467 95.2 630.933 71.8667 630 70.9333C628.667 69.4667 626 72 615.6 84.9333Z" fill="currentColor"/>
<path d="M328.267 72.8001C264.133 81.4668 210.133 108.267 164.533 153.867C110.267 208.133 82.1333 275.6 82.1333 352C82.1333 408 97.2 458.533 127.6 505.067C149.6 538.533 175.867 564.8 209.733 587.2C266.933 624.8 336.133 640 404.933 629.867C451.6 623.067 500.533 601.467 539.067 570.8C562.267 552.267 588.533 522.133 604.667 495.333C627.467 457.6 641.333 411.467 643.6 366.267L644.4 349.333H627.6H610.667V357.333C610.667 378.133 604.667 411.467 597.067 433.2C590.8 451.2 579.333 474 567.6 491.333C552.267 514.133 524.267 542.133 501.467 557.2C427.333 606.533 335.333 613.333 256.267 575.333C215.2 555.6 180.8 525.467 155.6 487.333C108.133 415.333 102.133 322.267 139.867 244.4C175.867 170.133 242.267 121.2 326.667 106.533C339.867 104.133 385.467 104.133 398.667 106.533C438 113.467 467.733 124.667 498.267 144.267L511.067 152.533L513.6 149.2C515.067 147.467 519.333 142.533 523.2 138.133C526.933 133.867 530.4 129.6 530.933 128.667C532.4 126.267 508.4 110.533 486.667 99.7334C438.267 75.7334 380 65.7334 328.267 72.8001Z" fill="currentColor"/>
<path d="M352 214.4V224.8L339.067 226.267C316.667 228.8 298.267 236.267 285.733 248.134C269.867 263.067 264.533 276.934 265.6 300.134C266 310.8 266.8 314 270.4 321.867C279.733 341.867 301.333 355.734 337.867 365.334L349.333 368.4V395.6V422.667H345.6C343.6 422.667 339.2 421.334 336 419.6C328.8 416 323.467 406.8 322.133 395.467L321.2 388H291.067H261.067L262 394.934C264.533 416.8 271.067 430.934 283.867 442.934C298.133 456.267 316.933 464.134 340.8 466.4L350 467.334L350.4 480.934L350.8 494.667H362.667H374.533L374.933 480.934L375.333 467.334L386 466.267C412 463.867 432.8 455.467 446 442.134C458.8 429.067 464 415.2 464 394C463.867 379.867 462.533 372.934 457.733 363.067C448.133 343.467 422.4 328 383.733 318.534L377.333 317.067V291.867C377.333 267.467 377.467 266.667 380 266.667C383.6 266.667 391.867 270.134 395.067 273.067C398.667 276.267 402.133 283.734 403.333 290.267L404.267 296H432.667H461.067L460.4 290.267C457.6 265.734 445.2 246.934 424.133 235.6C414.267 230.267 395.333 225.334 384.4 225.334H378.667V214.667V204H365.333H352V214.4ZM354.667 288.8V310.934L349.733 310.134C341.467 308.667 328.933 301.867 326.4 297.6C323.067 292.134 323.333 281.867 326.667 276.267C330.133 270.534 338.667 266.8 347.733 266.667H354.667V288.8ZM383.467 377.334C400.267 383.2 406 389.867 405.067 402.267C404 414.667 396.533 420.934 381.333 422.267L373.333 423.067V398.8C373.333 385.6 373.867 374.667 374.4 374.667C375.067 374.667 379.067 375.867 383.467 377.334Z" fill="currentColor"/>
<path d="M576 266.667V286.667H628H680V266.667V246.667H628H576V266.667Z" fill="currentColor"/>
<path d="M576 306V316H628H680V306.133V296.267L628 296.133L576 295.867V306Z" fill="currentColor"/>
</svg>
